<svg version="1.2" xmlns="http://www.w3.org/2000/svg" viewBox="0 0 46 42" width="46" height="42">
	<title>Shape 1</title>
	<style>
		.s0 { fill: #282828;stroke: #282828;stroke-miterlimit:100;stroke-width: 2 } 
	</style>
	<path id="Shape 1" class="s0" d="m3.1 22.4l20.3-18.6 19.8 18.5 0.5-0.4-20-18.8c-0.2-0.1-0.4-0.1-0.5 0l-20.6 18.8zm5.1-0.2v16.9q0 0.1 0.1 0.2 0.1 0.1 0.3 0.1h10.5q0.2 0 0.3-0.1 0-0.1 0.1-0.2v-9.8h7.8v9.8q0 0.1 0.1 0.2 0.1 0.1 0.2 0.1h10.8q0.1 0 0.2-0.1 0.1-0.1 0.1-0.2v-16.9h-0.7v16.6h-10v-9.9q0-0.1-0.1-0.2-0.1-0.1-0.3-0.1h-8.5q-0.1 0-0.2 0.1-0.1 0.1-0.1 0.2v9.9h-9.9v-16.6z"/>
</svg>